<svg width="200" height="200" version="1.1" xmlns="http://www.w3.org/2000/svg" desc="Created with imagetracer.js version 1.2.6" ><path fill="rgb(0,0,0)" stroke="rgb(0,0,0)" stroke-width="1" opacity="1" d="M 0 0 L 200 0 L 200 200 L 0 200 L 0 0 Z M 109 45 L 54 89 L 45 99 L 46 104 L 54 111 L 109 155 L 117 154 L 120 150 L 120 51 L 119 49 Q 117 44 109 45 Z M 149 73 L 147 74 L 128 94 L 128 107 L 130 110 L 149 127 Q 154 128 155 124 L 154 120 L 135 101 L 154 81 L 155 77 Q 154 72 149 73 Z " /><path fill="rgb(0,0,0)" stroke="rgb(0,0,0)" stroke-width="1" opacity="1" d="M 85.5 73 L 90.5 74 L 108 91.5 Q 111.5 95.5 110 104.5 L 108 108.5 L 90.5 126 L 85.5 127 Q 82 126 83 120.5 L 103 99.5 L 83 79.5 L 83 75.5 L 85.5 73 Z " /><path fill="rgb(228,228,228)" stroke="rgb(228,228,228)" stroke-width="1" opacity="1" d="M 108.5 45 L 110 45.5 L 107.5 47 L 108.5 45 Z " /><path fill="rgb(228,228,228)" stroke="rgb(228,228,228)" stroke-width="1" opacity="1" d="M 116.5 46 L 120 50.5 L 120 149.5 L 116.5 154 L 118 151.5 L 119 149.5 L 119 50.5 L 116.5 46 Z " /><path fill="rgb(228,228,228)" stroke="rgb(228,228,228)" stroke-width="1" opacity="1" d="M 105.5 47 L 102.5 51 L 105.5 47 Z " /><path fill="rgb(228,228,228)" stroke="rgb(228,228,228)" stroke-width="1" opacity="1" d="M 100.5 51 L 97.5 55 L 100.5 51 Z " /><path fill="rgb(228,228,228)" stroke="rgb(228,228,228)" stroke-width="1" opacity="1" d="M 94.5 56 L 92.5 59 L 94.5 56 Z " /><path fill="rgb(228,228,228)" stroke="rgb(228,228,228)" stroke-width="1" opacity="1" d="M 89.5 60 L 86.5 64 L 89.5 60 Z " /><path fill="rgb(228,228,228)" stroke="rgb(228,228,228)" stroke-width="1" opacity="1" d="M 84.5 64 L 82.5 67 L 84.5 64 Z " /><path fill="rgb(228,228,228)" stroke="rgb(228,228,228)" stroke-width="1" opacity="1" d="M 79.5 68 L 76.5 72 L 79.5 68 Z " /><path fill="rgb(228,228,228)" stroke="rgb(228,228,228)" stroke-width="1" opacity="1" d="M 73.5 73 L 71.5 76 L 73.5 73 Z " /><path fill="rgb(228,228,228)" stroke="rgb(228,228,228)" stroke-width="1" opacity="1" d="M 84.5 73 L 83.5 75 L 84.5 73 Z " /><path fill="rgb(228,228,228)" stroke="rgb(228,228,228)" stroke-width="1" opacity="1" d="M 146.5 74 L 130.5 91 L 146.5 74 Z " /><path fill="rgb(228,228,228)" stroke="rgb(228,228,228)" stroke-width="1" opacity="1" d="M 82.5 76 L 83 78.5 L 82 78.5 L 82.5 76 Z " /><path fill="rgb(228,228,228)" stroke="rgb(228,228,228)" stroke-width="1" opacity="1" d="M 154.5 76 L 155 78.5 L 154 78.5 L 154.5 76 Z " /><path fill="rgb(228,228,228)" stroke="rgb(228,228,228)" stroke-width="1" opacity="1" d="M 68.5 77 L 66.5 80 L 68.5 77 Z " /><path fill="rgb(228,228,228)" stroke="rgb(228,228,228)" stroke-width="1" opacity="1" d="M 83.5 80 L 103 100.5 L 83 119.5 L 102 99.5 L 83.5 80 Z " /><path fill="rgb(228,228,228)" stroke="rgb(228,228,228)" stroke-width="1" opacity="1" d="M 153.5 80 L 135 99.5 L 154 119.5 L 134 100.5 L 153.5 80 Z " /><path fill="rgb(228,228,228)" stroke="rgb(228,228,228)" stroke-width="1" opacity="1" d="M 63.5 81 L 60.5 85 L 63.5 81 Z " /><path fill="rgb(228,228,228)" stroke="rgb(228,228,228)" stroke-width="1" opacity="1" d="M 58.5 85 L 55.5 89 L 58.5 85 Z " /><path fill="rgb(228,228,228)" stroke="rgb(228,228,228)" stroke-width="1" opacity="1" d="M 53.5 89 L 50.5 93 L 53.5 89 Z " /><path fill="rgb(228,228,228)" stroke="rgb(228,228,228)" stroke-width="1" opacity="1" d="M 45.5 98 L 46 101.5 L 45 101.5 L 45.5 98 Z " /><path fill="rgb(228,228,228)" stroke="rgb(228,228,228)" stroke-width="1" opacity="1" d="M 50.5 107 L 53.5 111 L 50.5 107 Z " /><path fill="rgb(228,228,228)" stroke="rgb(228,228,228)" stroke-width="1" opacity="1" d="M 130.5 109 L 146.5 126 L 130.5 109 Z " /><path fill="rgb(228,228,228)" stroke="rgb(228,228,228)" stroke-width="1" opacity="1" d="M 55.5 111 L 58.5 115 L 55.5 111 Z " /><path fill="rgb(228,228,228)" stroke="rgb(228,228,228)" stroke-width="1" opacity="1" d="M 60.5 115 L 63.5 119 L 60.5 115 Z " /><path fill="rgb(228,228,228)" stroke="rgb(228,228,228)" stroke-width="1" opacity="1" d="M 66.5 120 L 68.5 123 L 66.5 120 Z " /><path fill="rgb(228,228,228)" stroke="rgb(228,228,228)" stroke-width="1" opacity="1" d="M 82.5 121 L 83 123.5 L 82 123.5 L 82.5 121 Z " /><path fill="rgb(228,228,228)" stroke="rgb(228,228,228)" stroke-width="1" opacity="1" d="M 154.5 121 L 155 123.5 L 154 123.5 L 154.5 121 Z " /><path fill="rgb(228,228,228)" stroke="rgb(228,228,228)" stroke-width="1" opacity="1" d="M 71.5 124 L 73.5 127 L 71.5 124 Z " /><path fill="rgb(228,228,228)" stroke="rgb(228,228,228)" stroke-width="1" opacity="1" d="M 83.5 125 L 84.5 127 L 83.5 125 Z " /><path fill="rgb(228,228,228)" stroke="rgb(228,228,228)" stroke-width="1" opacity="1" d="M 76.5 128 L 79.5 132 L 76.5 128 Z " /><path fill="rgb(228,228,228)" stroke="rgb(228,228,228)" stroke-width="1" opacity="1" d="M 82.5 133 L 84.5 136 L 82.5 133 Z " /><path fill="rgb(228,228,228)" stroke="rgb(228,228,228)" stroke-width="1" opacity="1" d="M 86.5 136 L 89.5 140 L 86.5 136 Z " /><path fill="rgb(228,228,228)" stroke="rgb(228,228,228)" stroke-width="1" opacity="1" d="M 92.5 141 L 94.5 144 L 92.5 141 Z " /><path fill="rgb(228,228,228)" stroke="rgb(228,228,228)" stroke-width="1" opacity="1" d="M 97.5 145 L 100.5 149 L 97.5 145 Z " /><path fill="rgb(228,228,228)" stroke="rgb(228,228,228)" stroke-width="1" opacity="1" d="M 102.5 149 L 105.5 153 L 102.5 149 Z " /><path fill="rgb(228,228,228)" stroke="rgb(228,228,228)" stroke-width="1" opacity="1" d="M 107.5 153 L 110 154.5 L 108.5 155 L 107.5 153 Z " /><path fill="rgb(254,254,254)" stroke="rgb(254,254,254)" stroke-width="1" opacity="1" d="M 110.5 45 Q 116.7 44.3 118 48.5 L 119 50.5 L 119 149.5 L 115.5 154 L 110.5 155 L 47 104.5 L 46 97.5 L 49.5 93 L 110.5 45 Z M 85 73 L 82 77 L 83 81 L 102 100 L 82 122 L 83 126 Q 84 128 90 127 L 110 106 L 110 95 L 109 93 L 90 73 L 85 73 Z " /><path fill="rgb(254,254,254)" stroke="rgb(254,254,254)" stroke-width="1" opacity="1" d="M 150.5 73 L 154 75.5 L 154 79.5 L 134 100.5 L 154 120.5 L 154 124.5 L 150.5 127 L 147.5 126 L 129 107.5 L 128 105.5 L 128 94.5 L 147.5 74 L 150.5 73 Z " /></svg>